<svg id="SvgjsSvg1033" width="288" height="288" xmlns="http://www.w3.org/2000/svg" version="1.1" xmlns:xlink="http://www.w3.org/1999/xlink" xmlns:svgjs="http://svgjs.com/svgjs"><defs id="SvgjsDefs1034"></defs><g id="SvgjsG1035"><svg xmlns="http://www.w3.org/2000/svg" viewBox="0 0 24 24" width="288" height="288"><path d="M12,16a1,1,0,0,1-.71-.29l-4-4a1,1,0,0,1,1.41-1.41L12,13.59l3.29-3.29a1,1,0,0,1,1.41,1.41l-4,4A1,1,0,0,1,12,16Z" fill="#ffffff" class="color000 svgShape"></path><path d="M12 16a1 1 0 0 1-1-1V5a1 1 0 0 1 2 0V15A1 1 0 0 1 12 16zM19 20H5a1 1 0 0 1 0-2H19a1 1 0 0 1 0 2z" fill="#ffffff" class="color000 svgShape"></path></svg></g></svg>